<?xml version="1.0" encoding="UTF-8"?><svg id="Layer_1" xmlns="http://www.w3.org/2000/svg" viewBox="0 0 205.66 205.62"><defs><style>.cls-1{fill:#1a7eb4;}.cls-1,.cls-2,.cls-3{fill-rule:evenodd;}.cls-2{fill:#8e4a86;}.cls-3{fill:#e85f94;}</style></defs><path class="cls-1" d="m161.66,148.32c1.79,0,3.25-1.46,3.25-3.25s-1.46-3.25-3.25-3.25h-40.95c-11.11-1.07-19.72-5.04-24.51-8.02-3.74-2.32-9.1-5.93-13.85-5.93-9.5,0-17.19,7.7-17.19,17.19s7.7,17.19,17.19,17.19c4.75,0,10.11-3.61,13.85-5.93,4.79-2.97,13.4-6.94,24.51-8.02h40.95Z"/><path class="cls-3" d="m161.66,63.81c1.79,0,3.25-1.46,3.25-3.25s-1.46-3.25-3.25-3.25h-40.95c-11.11-1.07-19.72-5.04-24.51-8.02-3.74-2.32-9.1-5.92-13.85-5.92-9.5,0-17.19,7.7-17.19,17.19s7.7,17.19,17.19,17.19c4.75,0,10.11-3.61,13.85-5.93,4.79-2.97,13.4-6.94,24.51-8.02h40.95Z"/><path class="cls-2" d="m199.48,106.25c-1.81,51.81-44.42,93.26-96.67,93.26S6.12,156.21,6.12,102.81,49.41,6.12,102.81,6.12c46.96,0,86.09,33.47,94.86,77.85l6.23-.03C195.04,36.17,153.15,0,102.81,0,46.03,0,0,46.03,0,102.81s46.03,102.81,102.81,102.81,102.81-46.03,102.81-102.81c0-1.09.06-2.17.02-3.25h-114.55c-11.11-1.07-19.72-5.04-24.51-8.02-3.74-2.32-9.1-5.93-13.85-5.93-9.49,0-17.19,7.7-17.19,17.19s7.7,17.19,17.19,17.19c4.75,0,10.11-3.61,13.85-5.93,4.79-2.97,13.4-6.94,24.51-8.02l108.39.19Z"/></svg>