<?xml version="1.0" encoding="utf-8"?>
<!-- Generator: Adobe Illustrator 12.0.0, SVG Export Plug-In . SVG Version: 6.00 Build 51448)  -->
<!DOCTYPE svg PUBLIC "-//W3C//DTD SVG 1.1//EN" "http://www.w3.org/Graphics/SVG/1.1/DTD/svg11.dtd" [
	<!ENTITY ns_svg "http://www.w3.org/2000/svg">
	<!ENTITY ns_xlink "http://www.w3.org/1999/xlink">
]>
<svg  version="1.1" id="Layer_1" xmlns="&ns_svg;" xmlns:xlink="&ns_xlink;" width="205.656" height="205.625"
	 viewBox="0 0 205.656 205.625" overflow="visible" enable-background="new 0 0 205.656 205.625" xml:space="preserve">
<path fillRule="evenodd" clip-rule="evenodd" fill="#1A7EB4" d="M161.658,148.316c1.794,0,3.254-1.456,3.254-3.25
	s-1.456-3.25-3.251-3.25h-40.954c-11.11-1.075-19.718-5.044-24.511-8.017c-3.737-2.318-9.098-5.926-13.848-5.926
	c-9.495,0-17.192,7.698-17.192,17.193s7.697,17.193,17.192,17.193c4.75,0,10.11-3.607,13.848-5.925
	c4.793-2.973,13.4-6.941,24.511-8.017H161.658z"/>
<path fillRule="evenodd" clip-rule="evenodd" fill="#E85F94" d="M161.658,63.809c1.794,0,3.254-1.455,3.254-3.25
	s-1.456-3.25-3.251-3.25h-40.954c-11.11-1.074-19.718-5.044-24.511-8.018c-3.737-2.318-9.098-5.925-13.848-5.925
	c-9.495,0-17.192,7.697-17.192,17.193c0,9.496,7.697,17.193,17.192,17.193c4.75,0,10.11-3.606,13.848-5.926
	c4.793-2.973,13.4-6.943,24.511-8.017H161.658z"/>
<path fillRule="evenodd" clip-rule="evenodd" fill="#8E4A86" d="M199.481,106.25c-1.81,51.811-44.417,93.257-96.669,93.257
	c-53.403,0-96.694-43.292-96.694-96.694c0-53.403,43.291-96.694,96.694-96.694c46.956,0,86.093,33.468,94.857,77.853l6.227-0.029
	C195.035,36.172,153.149,0,102.813,0C46.029,0,0,46.029,0,102.813c0,56.781,46.029,102.813,102.813,102.813
	c56.781,0,102.811-46.031,102.811-102.813c0-1.088,0.057-2.173,0.022-3.253L91.093,99.562c-11.11-1.076-19.718-5.045-24.51-8.018
	c-3.737-2.318-9.1-5.926-13.849-5.926c-9.495,0-17.192,7.698-17.192,17.194c0,9.496,7.698,17.192,17.192,17.192
	c4.75,0,10.112-3.606,13.849-5.925c4.792-2.974,13.399-6.943,24.51-8.017L199.481,106.25z"/>
</svg>
